<svg width="11" height="15" viewBox="0 0 11 15" fill="none" xmlns="http://www.w3.org/2000/svg">
<path d="M0.846154 5.71289V10.4234C0.846154 10.7068 0.739905 10.9733 0.54701 11.1736C0.194277 11.54 0 12.0272 0 12.5453V13.2422H3.42718C3.62371 14.2439 4.47841 15 5.5 15C6.52159 15 7.37626 14.2439 7.57282 13.2422H11V12.5453C11 12.0271 10.8057 11.54 10.453 11.1736C10.2601 10.9732 10.1538 10.7068 10.1538 10.4234V5.71289C10.1538 3.19559 8.29166 1.12189 5.92308 0.899092V0H5.07692V0.899092C2.70834 1.12187 0.846154 3.19556 0.846154 5.71289ZM5.5 14.1211C4.94845 14.1211 4.47818 13.7537 4.30354 13.2419H6.69643C6.52182 13.7537 6.05155 14.1211 5.5 14.1211ZM9.30769 5.71289V10.4234C9.30769 10.9416 9.50197 11.4287 9.8547 11.7951C10.0057 11.9519 10.1035 12.1492 10.139 12.3633H0.861046C0.896472 12.1491 0.994372 11.9519 1.14533 11.7951C1.49803 11.4287 1.69231 10.9416 1.69231 10.4234V5.71289C1.69231 3.53206 3.40044 1.75781 5.5 1.75781C7.59956 1.75781 9.30769 3.53206 9.30769 5.71289Z" fill="#5C6673"/>
</svg>
