<svg width="35" height="35" viewBox="0 0 35 35" fill="none" xmlns="http://www.w3.org/2000/svg">
<circle cx="17.5" cy="17.5" r="17.5" fill="#DCE6F1"/>
<path fill-rule="evenodd" clip-rule="evenodd" d="M14.5667 14.2857V12.8571C14.5667 12.0993 14.8758 11.3725 15.4258 10.8368C15.9758 10.3011 16.7219 10 17.5 10L17.573 10.0007C18.3246 10.0189 19.0415 10.3179 19.5742 10.8368C20.1242 11.3725 20.4333 12.0993 20.4333 12.8571V14.2857H21.1667C22.1787 14.2857 23 15.0857 23 16.0714V18.9286C23 19.1257 22.8357 19.2857 22.6333 19.2857C22.4309 19.2857 22.2667 19.1257 22.2667 18.9286V16.0714C22.2667 15.48 21.7739 15 21.1667 15H13.8333C13.2261 15 12.7333 15.48 12.7333 16.0714V23.2143C12.7333 23.8057 13.2261 24.2857 13.8333 24.2857H21.1667C21.7739 24.2857 22.2667 23.8057 22.2667 23.2143V20.3571C22.2667 20.16 22.4309 20 22.6333 20C22.8357 20 23 20.16 23 20.3571V23.2143C23 24.2 22.1787 25 21.1667 25H13.8333C12.8213 25 12 24.2 12 23.2143V16.0714C12 15.0857 12.8213 14.2857 13.8333 14.2857H14.5667ZM17.1333 20.3121C16.5012 20.1532 16.0333 19.5936 16.0333 18.9286C16.0333 18.14 16.6904 17.5 17.5 17.5C18.3096 17.5 18.9667 18.14 18.9667 18.9286C18.9667 19.5936 18.4988 20.1532 17.8667 20.3121V21.7857C17.8667 21.8357 17.856 21.885 17.8351 21.9307C17.8157 21.9732 17.7875 22.0121 17.753 22.0443C17.72 22.075 17.6808 22.0996 17.6386 22.1164C17.5997 22.1318 17.5583 22.1407 17.5165 22.1425C17.4765 22.1443 17.4362 22.1396 17.3973 22.1286C17.3632 22.1189 17.3306 22.1043 17.3005 22.0854C17.2342 22.0436 17.1828 21.9807 17.1557 21.9086C17.1407 21.8693 17.1333 21.8275 17.1333 21.7857V20.3121ZM17.5 18.2143C17.9048 18.2143 18.2333 18.5343 18.2333 18.9286C18.2333 19.3229 17.9048 19.6429 17.5 19.6429C17.0952 19.6429 16.7667 19.3229 16.7667 18.9286C16.7667 18.5343 17.0952 18.2143 17.5 18.2143ZM17.4454 10.715C16.8818 10.7286 16.3439 10.9525 15.9442 11.3418C15.5317 11.7439 15.3 12.2889 15.3 12.8571V14.2857H19.7V12.8571C19.7 12.2889 19.4683 11.7439 19.0558 11.3418C18.6429 10.94 18.0834 10.7143 17.5 10.7143L17.4454 10.715Z" fill="#5C6673"/>
</svg>
