<svg width="67" height="67" viewBox="0 0 67 67" fill="none" xmlns="http://www.w3.org/2000/svg">
<path d="M33.5 65.6294C52.0015 65.6294 67 50.9377 67 32.8147C67 14.6916 52.0015 0 33.5 0C14.9985 0 0 14.6916 0 32.8147C0 50.9377 14.9985 65.6294 33.5 65.6294Z" fill="#2FAFFF"/>
<path d="M27.5269 22.0322C28.1652 22.0322 28.6827 21.5254 28.6827 20.9001C28.6827 20.2748 28.1652 19.7679 27.5269 19.7679C26.8886 19.7679 26.3711 20.2748 26.3711 20.9001C26.3711 21.5254 26.8886 22.0322 27.5269 22.0322Z" fill="white"/>
<path d="M26.0482 22.6141C26.2803 22.6141 26.4685 22.4298 26.4685 22.2024C26.4685 21.975 26.2803 21.7907 26.0482 21.7907C25.8161 21.7907 25.6279 21.975 25.6279 22.2024C25.6279 22.4298 25.8161 22.6141 26.0482 22.6141Z" fill="white"/>
<path d="M43.7564 22.0322C44.3947 22.0322 44.9122 21.5254 44.9122 20.9001C44.9122 20.2748 44.3947 19.7679 43.7564 19.7679C43.1181 19.7679 42.6006 20.2748 42.6006 20.9001C42.6006 21.5254 43.1181 22.0322 43.7564 22.0322Z" fill="white"/>
<path d="M42.2767 22.6141C42.5088 22.6141 42.697 22.4298 42.697 22.2024C42.697 21.975 42.5088 21.7907 42.2767 21.7907C42.0446 21.7907 41.8564 21.975 41.8564 22.2024C41.8564 22.4298 42.0446 22.6141 42.2767 22.6141Z" fill="white"/>
<path d="M16.0192 28.4321C14.9424 30.8261 3.51139 35.9655 0.634766 43.2766C3.4532 51.0403 10.1068 57.7057 19.2818 63.649C26.1625 56.8328 28.6895 47.3692 29.8169 40.3056C21.0701 38.2884 17.6066 33.9472 16.0192 28.4321Z" fill="white"/>
<path d="M49.9658 30.3591C57.8622 42.4006 51.2361 53.7487 44.7829 64.1823L30.2051 67.0001C34.1119 60.9456 38.7097 48.3407 39.3566 39.6777C42.6253 38.8598 48.063 35.5993 49.9658 30.3591Z" fill="white"/>
<path d="M53.9912 8.38185L54.166 7.79655H53.5433C49.8154 7.79655 45.8063 9.3003 42.7004 10.6341C35.9871 9.39778 29.9094 9.39678 24.1307 10.631C20.5177 9.07613 17.1957 7.79916 13.2949 7.79655L12.6719 7.79614L12.8469 8.38185C13.4516 10.4067 14.5646 12.2369 16.0654 13.6746C16.6118 14.1981 17.2031 14.6577 17.8303 15.0527C16.9839 16.7409 14.9752 21.3732 15.3326 26.6601C15.5035 29.1873 16.1989 31.4868 17.3995 33.4949C18.7887 35.8182 20.8615 37.757 23.5603 39.2571L24.0209 38.4624C13.5634 32.6494 15.6455 21.4721 18.6379 15.5137C19.5096 15.9635 20.4396 16.2936 21.4107 16.4954C20.1377 17.8708 19.5133 19.7611 19.6833 21.82C19.884 24.2476 21.1436 26.4553 22.8928 27.4444C23.9275 28.0297 24.9943 28.3256 26.0427 28.3256C26.5919 28.3256 27.1366 28.2445 27.6685 28.0809C29.1032 27.6402 30.3424 26.6388 31.3041 25.1578C31.5147 26.1222 31.6666 26.9016 31.8027 27.6007C32.1114 29.1869 32.3343 30.3329 32.9696 32.1895L33.0763 32.5013H33.8406L33.9474 32.1895C34.5513 30.425 34.7556 29.2829 35.0147 27.8372C35.1478 27.0942 35.2968 26.2654 35.5218 25.2178C36.4777 26.6652 37.7022 27.6463 39.1171 28.0809C39.6492 28.2443 40.1933 28.3256 40.7427 28.3256C41.7913 28.3256 42.8581 28.0297 43.8928 27.4444C45.642 26.4553 46.9016 24.2476 47.1021 21.82C47.2719 19.7657 46.6503 17.8793 45.3831 16.5047C46.3224 16.3137 47.2248 16.0027 48.0736 15.5786C51.0485 21.5527 53.078 32.6701 42.6584 38.4622L43.119 39.2569C45.8178 37.7568 47.8906 35.8182 49.2798 33.4947C50.4806 31.4866 51.176 29.1871 51.3467 26.6599C51.6991 21.4473 49.7519 16.873 48.886 15.1274C49.5582 14.7163 50.1907 14.2315 50.7724 13.6746C52.2734 12.2371 53.3864 10.4069 53.9912 8.38185ZM27.3895 27.209C26.0976 27.606 24.7041 27.4136 23.3594 26.6533C21.8908 25.8227 20.7873 23.8508 20.6133 21.7464C20.4457 19.7172 21.15 17.8843 22.5466 16.6807C27.744 17.4481 30.3381 19.5881 31.0502 23.7269C30.1469 25.5461 28.884 26.75 27.3895 27.209ZM46.1723 21.7464C45.9983 23.8508 44.895 25.8227 43.4262 26.6533C42.0817 27.4136 40.6882 27.606 39.3961 27.209C37.9232 26.7566 36.6753 25.5808 35.7747 23.8055C36.4654 19.6288 39.0441 17.4664 44.2462 16.6869C45.6381 17.8906 46.3396 19.7206 46.1723 21.7464ZM44.6192 15.7115C38.3828 16.5159 35.339 19.1871 34.7534 24.3721C34.4398 25.7598 34.257 26.7794 34.0958 27.6793C33.9042 28.7488 33.7516 29.6014 33.4559 30.6467C33.1234 29.5067 32.9448 28.5883 32.7196 27.4297C32.5555 26.587 32.37 25.6325 32.0849 24.3721C31.499 19.1871 28.4553 16.5159 22.2254 15.7123C17.7316 15.0704 15.0476 11.7861 13.9399 8.72345C17.4404 8.86081 20.5305 10.0765 23.8944 11.5277L24.0342 11.5882L24.1835 11.5557C29.9215 10.3082 35.9682 10.309 42.6687 11.5585L42.8112 11.5851L42.944 11.5279C45.8036 10.2943 49.4702 8.88901 52.8975 8.72627C51.7888 11.7882 49.1054 15.0706 44.6192 15.7115Z" fill="white"/>
<path d="M44.6763 37.4734C42.9158 36.713 41.0598 36.3124 39.1305 36.3986C38.761 36.4151 38.5153 36.6133 38.3886 36.8685C35.3919 37.2158 32.8583 38.7229 31.7615 40.6972C30.7904 42.4455 31.1716 44.1895 32.7579 45.4769C32.7526 45.5013 32.744 45.5241 32.7405 45.5492C32.6757 46.0308 33.0218 46.4727 33.5136 46.5362C34.0052 46.5996 34.4564 46.2606 34.5211 45.7789C34.5859 45.2973 34.2398 44.8554 33.748 44.7919C33.6285 44.7764 33.5117 44.7857 33.4021 44.8141C32.1125 43.801 31.8162 42.5109 32.5811 41.1339C33.3324 39.7812 34.9688 38.6375 36.9579 38.0748C37.4399 37.9384 37.932 37.8418 38.4289 37.7795C38.5644 37.9852 38.7964 38.127 39.1303 38.112C40.737 38.0403 42.3184 38.3161 43.7931 38.9529C44.2284 39.1411 44.7277 39.0742 44.9899 38.6456C45.2115 38.2834 45.1077 37.6597 44.6763 37.4734Z" fill="white"/>
<path d="M50.4269 31.0886L49.7757 30.0944C48.8631 33.0451 46.9496 35.4287 44.1995 37.3435L42.3993 38.4728C42.3993 38.4728 43.2618 38.7264 43.6342 38.8849C44.5106 40.1995 44.964 41.4247 45.1521 42.9917C45.1901 43.3082 45.3501 43.5915 45.6119 43.7396C45.6308 44.2351 45.6135 44.7313 45.5537 45.2244C45.3094 47.2385 44.4228 49.0055 43.1818 49.9512C41.9187 50.9139 40.5711 50.8366 39.3413 49.7546C39.3522 49.644 39.3425 49.5296 39.3076 49.4166C39.164 48.9516 38.6627 48.6887 38.188 48.8295C37.7132 48.9701 37.4448 49.4611 37.5886 49.9262C37.7321 50.3911 38.2334 50.6541 38.7082 50.5133C38.7335 50.5059 38.7557 50.4936 38.7799 50.4841C39.5971 51.1802 40.4862 51.5383 41.3802 51.5383C42.186 51.5383 42.9947 51.2519 43.7547 50.6726C45.5596 49.2972 46.6655 46.6172 46.5382 43.6761C46.7681 43.518 46.9346 43.2683 46.9015 42.9921C46.8419 41.3144 45.7827 38.8031 45.1842 37.9097C47.8879 36.1159 49.3979 34.1354 50.4269 31.0886Z" fill="#2FAFFF"/>
<path d="M26.3852 43.4526C28.0444 43.4526 29.3895 42.135 29.3895 40.5097C29.3895 38.8845 28.0444 37.5669 26.3852 37.5669C24.7259 37.5669 23.3809 38.8845 23.3809 40.5097C23.3809 42.135 24.7259 43.4526 26.3852 43.4526Z" fill="white"/>
<path d="M26.3843 37.1098C25.3835 37.1098 24.4831 37.5292 23.8492 38.1953C19.8898 36.1366 17.1227 32.5065 16.424 27.9977L15.6484 28.9733C16.5297 33.337 19.073 36.6613 23.2434 39.072C23.0339 39.5095 22.9134 39.9955 22.9134 40.5097C22.9134 42.3842 24.4704 43.9096 26.3843 43.9096C28.2982 43.9096 29.8551 42.3845 29.8551 40.5097C29.8551 38.6349 28.2982 37.1098 26.3843 37.1098ZM26.3843 42.9955C24.9848 42.9955 23.8465 41.8803 23.8465 40.5097C23.8465 39.1389 24.985 38.0236 26.3843 38.0236C27.7835 38.0236 28.922 39.1389 28.922 40.5097C28.9222 41.8803 27.7837 42.9955 26.3843 42.9955Z" fill="#2FAFFF"/>
</svg>
