<svg width="13" height="15" viewBox="0 0 13 15" fill="none" xmlns="http://www.w3.org/2000/svg">
<path d="M6.5554 8.08242C6.53957 8.08242 6.52375 8.08242 6.50476 8.08242C6.49843 8.08242 6.4921 8.08242 6.48577 8.08242C6.47628 8.08242 6.46362 8.08242 6.45412 8.08242C5.52681 8.06689 4.77672 7.74695 4.22287 7.13502C3.00438 5.78691 3.20693 3.47588 3.22909 3.25533C3.30821 1.59971 4.10576 0.807621 4.76406 0.437979C5.25462 0.161524 5.82747 0.0124249 6.46678 0H6.48893C6.4921 0 6.49843 0 6.5016 0H6.52058C6.87189 0 7.56184 0.0559122 8.2233 0.425554C8.88793 0.795196 9.69815 1.58729 9.77727 3.25533C9.79942 3.47588 10.002 5.78691 8.78349 7.13502C8.2328 7.74695 7.48271 8.06689 6.5554 8.08242ZM8.93224 3.33299C8.93224 3.32367 8.92907 3.31435 8.92907 3.30814C8.82463 1.08097 7.2137 0.841789 6.52375 0.841789H6.51109C6.50476 0.841789 6.49527 0.841789 6.48577 0.841789C5.63125 0.860427 4.17856 1.20211 4.08045 3.30814C4.08045 3.31746 4.08045 3.32678 4.07728 3.33299C4.07411 3.35473 3.85257 5.46697 4.85901 6.579C5.25779 7.02009 5.78949 7.23752 6.48893 7.24374C6.49527 7.24374 6.49843 7.24374 6.50476 7.24374C6.51109 7.24374 6.51425 7.24374 6.52058 7.24374C7.21686 7.23752 7.75173 7.02009 8.14734 6.579C9.15062 5.47318 8.9354 3.35163 8.93224 3.33299Z" fill="#5C6673"/>
<path d="M0.000886917 11.9155C0.000886917 11.9124 0.000886917 11.9093 0.000886917 11.9062C0.000886917 11.8813 0.00405121 11.8565 0.00405121 11.8285C0.0230398 11.2135 0.0641842 9.77532 1.43775 9.31559C1.44725 9.31249 1.45991 9.30938 1.4694 9.30628C2.89677 8.94906 4.08361 8.14144 4.09627 8.13212C4.28933 7.99855 4.55518 8.04515 4.69127 8.23462C4.82736 8.42411 4.77989 8.68503 4.58683 8.8186C4.53303 8.85587 3.27339 9.7163 1.69727 10.1139C0.959851 10.3717 0.877564 11.1452 0.855411 11.8534C0.855411 11.8813 0.85541 11.9062 0.852245 11.931C0.84908 12.2106 0.86807 12.6424 0.918708 12.8909C1.43142 13.1766 3.44113 14.1644 6.49843 14.1644C9.54307 14.1644 11.5654 13.1735 12.0813 12.8878C12.132 12.6393 12.1541 12.2075 12.1478 11.9279C12.1478 11.9031 12.1446 11.8782 12.1446 11.8503C12.1225 11.1421 12.0402 10.3686 11.3028 10.1108C9.72663 9.71319 8.467 8.84966 8.4132 8.81549C8.22014 8.68192 8.17266 8.421 8.30875 8.23152C8.44484 8.04204 8.7107 7.99545 8.90376 8.12901C8.91642 8.13833 10.0969 8.94595 11.5306 9.30317C11.5433 9.30628 11.5528 9.30938 11.5623 9.31249C12.9358 9.77532 12.977 11.2135 12.996 11.8254C12.996 11.8534 12.996 11.8782 12.9991 11.9031C12.9991 11.9062 12.9991 11.9093 12.9991 11.9124C13.0023 12.0739 13.0055 12.9033 12.8377 13.3195C12.8061 13.4003 12.7491 13.4686 12.6732 13.5152C12.5782 13.5773 10.3026 15 6.49527 15C2.68789 15 0.412324 13.5742 0.317377 13.5152C0.244584 13.4686 0.184451 13.4003 0.152802 13.3195C-0.00544357 12.9064 -0.00227833 12.077 0.000886917 11.9155Z" fill="#5C6673"/>
</svg>
