<svg width="76" height="90" viewBox="0 0 76 90" fill="none" xmlns="http://www.w3.org/2000/svg">
<path d="M38.3239 48.4945C38.2314 48.4945 38.1388 48.4945 38.0278 48.4945C37.9908 48.4945 37.9538 48.4945 37.9168 48.4945C37.8613 48.4945 37.7873 48.4945 37.7318 48.4945C32.3106 48.4013 27.9255 46.4817 24.6875 42.8101C17.5641 34.7215 18.7482 20.8553 18.8777 19.532C19.3403 9.59826 24.0029 4.84572 27.8515 2.62787C30.7193 0.969145 34.0683 0.0745496 37.8058 0H37.9353C37.9538 0 37.9908 0 38.0093 0H38.1203C40.1741 0 44.2077 0.335473 48.0747 2.55332C51.9602 4.77117 56.6969 9.52371 57.1594 19.532C57.2889 20.8553 58.4731 34.7215 51.3496 42.8101C48.1302 46.4817 43.7451 48.4013 38.3239 48.4945ZM52.2192 19.9979C52.2192 19.942 52.2007 19.8861 52.2007 19.8488C51.5902 6.48582 42.1724 5.05074 38.1388 5.05074H38.0648C38.0278 5.05074 37.9723 5.05074 37.9168 5.05074C32.9211 5.16256 24.4285 7.21267 23.8549 19.8488C23.8549 19.9047 23.8549 19.9607 23.8364 19.9979C23.8179 20.1284 22.5227 32.8018 28.4065 39.474C30.7378 42.1205 33.8463 43.4251 37.9353 43.4624C37.9723 43.4624 37.9908 43.4624 38.0278 43.4624C38.0648 43.4624 38.0833 43.4624 38.1203 43.4624C42.1909 43.4251 45.3178 42.1205 47.6306 39.474C53.4959 32.8391 52.2377 20.1098 52.2192 19.9979Z" fill="#C5D4E6"/>
<path d="M0.00518799 71.4931C0.00518799 71.4744 0.00518799 71.4558 0.00518799 71.4372C0.00518799 71.2881 0.0236816 71.139 0.0236816 70.9712C0.134697 67.281 0.375237 58.6519 8.40532 55.8936C8.46083 55.8749 8.53484 55.8563 8.59035 55.8377C16.935 53.6944 23.8734 48.8486 23.9474 48.7927C25.0761 47.9913 26.6303 48.2709 27.4259 49.4077C28.2215 50.5446 27.944 52.1102 26.8153 52.9116C26.5008 53.1352 19.1368 58.2978 9.92252 60.6834C5.61143 62.2303 5.13038 66.871 5.00086 71.1203C5.00086 71.2881 5.00086 71.4372 4.98235 71.5863C4.96385 73.2636 5.07487 75.8542 5.37091 77.3452C8.36832 79.0599 20.1174 84.9865 37.9908 84.9865C55.7902 84.9865 67.6133 79.0412 70.6292 77.3266C70.9253 75.8356 71.0548 73.245 71.0178 71.5676C71.0178 71.4185 70.9993 71.2694 70.9993 71.1017C70.8698 66.8524 70.3887 62.2116 66.0776 60.6647C56.8634 58.2792 49.4994 53.098 49.1848 52.8929C48.0562 52.0915 47.7786 50.526 48.5743 49.3891C49.3699 48.2522 50.9241 47.9727 52.0527 48.7741C52.1267 48.83 59.0282 53.6757 67.4098 55.819C67.4838 55.8377 67.5393 55.8563 67.5948 55.8749C75.6249 58.6519 75.8654 67.281 75.9765 70.9526C75.9765 71.1203 75.9765 71.2694 75.995 71.4185C75.995 71.4372 75.995 71.4558 75.995 71.4744C76.0135 72.4436 76.032 77.4198 75.0513 79.9172C74.8663 80.4017 74.5333 80.8118 74.0892 81.0913C73.5341 81.4641 60.2308 90 37.9723 90C15.7138 90 2.41051 81.4454 1.85544 81.0913C1.42988 80.8118 1.07833 80.4017 0.893303 79.9172C-0.0318222 77.4384 -0.0133209 72.4622 0.00518799 71.4931Z" fill="#C5D4E6"/>
</svg>
