<svg width="167" height="169" viewBox="0 0 167 169" fill="none" xmlns="http://www.w3.org/2000/svg">
<path d="M116.617 57.0787C108.776 64.1738 96.8276 63.053 86.5578 65.4796C76.2905 67.9064 68.4499 70.7084 56.1286 73.3422C45.8394 75.5398 41.5097 85.6586 40.3865 98.1627C39.5826 93.7574 40.0283 89.5448 40.2598 87.6955C40.6326 84.7085 37.2726 84.148 30.5529 84.8959C23.8306 85.6415 14.8693 84.148 6.28304 79.2945C5.95662 79.1093 5.6447 78.9265 5.34505 78.7415C15.7952 84.5353 29.9925 80.0425 33.7252 78.3614C37.4603 76.6825 33.3525 70.8935 35.4064 68.8396C37.4603 66.7881 38.5787 73.3203 43.6198 73.3422C48.6609 73.3617 50.3421 65.6673 56.8743 64.734C63.4088 63.8009 72.5579 60.2535 78.157 51.292C83.7584 42.3307 80.7714 34.3025 84.8792 29.2614C88.9872 24.2229 94.7738 17.1277 89.7326 16.7549C84.6915 16.3822 85.9999 20.6753 79.0926 25.9014C72.1852 31.13 71.8099 36.3564 72.9307 40.2767C74.0515 44.1969 74.7971 52.9732 70.0363 56.706C65.2754 60.4385 57.4348 61.5593 55.5684 59.693C53.7021 57.8268 63.9694 55.4 67.3294 53.2119C70.6918 51.0242 67.3294 40.6495 65.8359 35.7961C64.3424 30.9426 62.1032 26.0891 64.3424 23.6623C66.584 21.2356 67.1444 24.7831 71.2498 27.0222C75.3578 29.2613 75.5453 22.1688 76.8513 17.688C78.1572 13.2073 78.3448 11.341 72.7433 10.2202C67.1444 9.09938 63.4091 0.698441 66.0236 2.75235C68.6379 4.80625 72.7433 6.86016 76.8513 6.48745C80.9591 6.11222 74.6876 -2.47891 80.8885 1.8191C87.0918 6.1171 86.5582 10.5927 89.3602 12.2741C92.1596 13.9528 99.6275 14.8884 100 12.0864C100.373 9.28678 97.9464 5.36651 100.748 4.24572C103.548 3.12492 108.776 2.75221 109.149 4.24572C109.522 5.73923 104.481 4.24572 102.427 6.29976C100.373 8.35367 104.669 11.7135 106.908 12.6468C109.149 13.58 112.697 11.3408 115.309 8.72653C117.923 6.11222 123.892 7.42042 120.35 8.72653C116.81 10.0325 115.869 11.7135 113.815 14.8884C111.761 18.0607 107.841 18.2483 103.92 18.4334C100 18.6211 98.6942 20.3022 93.6532 26.0888C88.6121 31.8754 89.5452 35.0503 88.0517 42.3304C86.5582 49.6106 83.571 49.6106 81.8922 56.3328C80.211 63.0527 84.8794 60.9988 95.3342 58.1992C105.789 55.3997 113.255 55.5849 116.802 52.4126C120.35 49.2379 119.604 43.2637 120.35 43.6364C121.097 44.0119 124.457 49.9861 116.617 57.0787Z" fill="url(#paint0_linear)"/>
<path d="M104.621 23.0085C106.748 26.554 106.021 31.5496 103.081 33.2297C100.14 34.9099 94.6797 37.4302 92.2994 43.4508C89.919 49.4716 89.919 55.7723 92.2994 54.7922C94.6797 53.8121 91.8792 48.7714 96.9199 42.7507C101.961 36.7299 107.981 37.8114 111.342 38.9509C114.702 40.0904 118.762 38.8301 120.863 40.0904C122.963 41.3506 125.343 48.0713 129.124 51.5718C132.904 55.0722 135.564 55.9123 130.944 63.1931C126.323 70.474 113.162 78.4551 99.0202 78.3151C84.8785 78.1751 78.8578 83.0756 70.0367 82.0955C61.2156 81.1154 55.1949 86.716 54.0748 91.1965C52.9547 95.6771 55.895 90.7764 61.3556 88.3962C66.8163 86.0159 73.5371 88.8162 80.958 87.4161C88.3788 86.0159 90.199 82.0955 103.361 82.9356C116.522 83.7757 127.723 73.2744 131.084 67.5338C134.444 61.793 136.545 63.7534 136.265 67.9538C135.985 72.1543 134.584 83.6357 124.503 86.296C114.422 88.9563 107.281 87.2761 100.56 88.3962C93.8394 89.5163 89.499 92.8768 82.7782 93.9968C76.0573 95.1169 69.7566 95.8171 66.2561 93.9968C62.7557 92.1766 62.7557 96.5172 66.1161 98.6174C69.4766 100.718 81.5794 99.0375 83.9989 98.6174C86.4186 98.1974 90.199 99.7375 95.7996 102.398C101.4 105.058 106.721 102.958 105.741 102.398C104.761 101.838 97.0597 99.1774 97.0597 97.2171C97.0597 95.2569 98.8799 92.3165 105.321 93.2966C111.761 94.2767 119.322 91.8964 122.403 90.9163C125.483 89.9362 128.983 92.4565 129.544 95.6768C130.104 98.8972 129.264 101.277 130.804 100.857C132.344 100.437 131.784 95.2568 131.784 93.0165C131.784 90.7763 136.264 89.656 140.045 91.7564C143.825 93.8566 147.046 97.497 146.765 100.857C146.485 104.218 145.925 106.271 147.326 105.805C148.726 105.338 149.566 102.258 152.226 102.538C154.886 102.818 158.107 105.338 155.727 109.118C153.346 112.899 161.754 111.998 164.82 109.943C167.885 107.888 164.128 103.658 162.027 102.958C159.927 102.258 155.026 100.297 157.267 95.9568C159.507 91.6162 156.847 92.5963 153.766 94.2766C150.686 95.9568 139.625 89.2359 139.345 85.1755C139.065 81.1151 141.585 77.7547 140.885 69.4936C140.185 61.2326 139.205 60.5325 141.165 58.0122C143.125 55.4919 141.445 52.9716 139.205 53.8117C136.965 54.6518 128.283 45.4106 127.023 42.7504C125.763 40.0901 121.563 39.39 123.243 37.0098C124.923 34.6295 131.084 31.5492 134.304 32.3893C137.524 33.2294 141.585 37.4299 142.845 38.83C144.105 40.2302 140.325 33.6494 138.365 31.2692C136.404 28.8888 138.201 24.6633 140.605 23.0082C143.009 21.3531 138.925 17.9676 137.525 21.7481C136.124 25.5285 131.084 30.9892 127.443 29.169C123.803 27.3488 117.502 23.2061 119.743 20.0268C121.983 16.8475 123.946 15.3074 121.704 14.1872C119.462 13.0671 115.822 19.5078 115.822 20.2079C115.822 20.908 115.962 22.7282 119.882 26.0887C123.803 29.4491 122.403 34.3496 118.342 35.6098C114.282 36.8699 107.841 35.7498 107.841 33.0895C107.841 30.4292 110.221 29.1691 109.241 24.5484C108.261 19.9282 102.941 20.2082 104.621 23.0085Z" fill="url(#paint1_linear)"/>
<path d="M148.166 33.3698C145.405 35.9932 145.366 38.9704 145.926 42.0509C146.486 45.1312 149.986 50.3118 150.967 63.7534C151.947 77.195 146.206 88.3964 147.746 88.9563C149.286 89.5165 150.967 82.3756 154.047 85.5959C157.127 88.8163 156.567 84.4758 154.747 81.5354C152.927 78.5951 156.007 74.8145 160.068 77.8949C164.128 80.9753 165.108 86.296 165.248 90.0764C165.388 93.8569 167.548 88.2562 165.978 82.7956C164.408 77.335 162.168 76.3549 160.628 72.5744C159.087 68.794 164.268 67.0893 164.268 62.341C164.268 57.5928 162.308 56.6125 161.608 57.7328C160.908 58.8529 162.168 66.2738 158.107 66.8338C154.047 67.3939 153.414 60.8131 156.181 58.7129C158.947 56.6127 159.928 54.2323 159.368 49.3317C158.807 44.4312 157.475 41.2107 156.181 42.751C154.887 44.2912 156.987 54.3723 153.907 53.8122C150.827 53.2521 150.827 46.1113 149.146 43.031C147.466 39.9505 150.967 30.7095 148.166 33.3698Z" fill="url(#paint2_linear)"/>
<path d="M48.6143 32.8942C40.7738 38.8611 43.5732 44.1506 43.5732 51.0118C43.5732 57.8729 38.3933 67.1144 36.4318 66.4127C34.4729 65.7134 37.9718 60.9527 37.9718 57.1736C37.9718 53.3922 41.0539 42.472 40.9126 38.2714C40.7738 34.071 33.3522 36.1711 32.9332 34.3486C32.5117 32.5287 35.4526 31.5492 40.3522 31.6905C45.2544 31.8294 44.4139 29.5902 48.8946 26.5081C53.3752 23.4283 53.5141 17.5466 50.4514 18.5287C47.3888 19.5081 41.7532 22.0274 41.3342 20.3486C40.9126 18.6674 46.3727 17.4079 49.0334 15.0274C51.3676 12.9393 51.007 8.69739 46.5385 4.28504C46.6944 4.32882 46.843 4.37763 46.9819 4.43368C48.7727 5.14997 50.047 4.27779 51.5284 3.03025C52.6638 4.42643 53.5677 6.1588 53.8382 8.16641C54.6933 14.533 53.9356 13.768 56.455 16.8476C58.9743 19.9272 56.455 26.9297 48.6143 32.8942Z" fill="url(#paint3_linear)"/>
<path d="M24.8124 53.8114C26.211 59.1326 32.7918 66.1326 31.671 68.0939C30.5527 70.0529 24.671 61.6519 21.7618 59.693C18.8551 57.7317 12.0695 63.7521 12.4911 60.9528C12.9101 58.1532 17.5298 58.1532 19.9101 54.7933C22.2905 51.4311 18.3703 44.431 20.0513 37.9913C21.7302 31.5493 25.5115 26.7884 29.2929 24.1278C33.072 21.4672 30.1311 19.2281 25.9305 21.3281C21.73 23.4285 15.5707 28.8886 16.2699 25.9477C16.9692 23.0093 22.5707 21.1893 24.3907 19.3668C25.6821 18.0754 25.4238 15.729 24.1667 14.9737C24.6345 14.7278 25.0267 14.5694 25.324 14.5133C27.2195 14.1576 27.9871 13.5775 28.8202 12.2473C32.1022 13.1659 35.7155 14.7544 35.8714 16.5672C36.1517 19.7883 35.3135 23.4283 27.0513 29.7291C18.7918 36.03 23.4115 48.4926 24.8124 53.8114Z" fill="url(#paint4_linear)"/>
<path d="M3.10876 39.8988C2.13674 42.3339 -0.811651 49.1916 1.14855 51.5719C3.10876 53.9522 6.60919 54.6523 7.1693 58.0126C7.72942 61.3729 2.86949 68.9272 3.82923 73.3411C4.78897 77.755 8.56953 81.2554 11.5098 79.9953C14.4501 78.7352 7.58943 78.4484 7.58943 73.3411C7.58943 68.2338 11.5098 62.2132 11.5098 58.5726C11.5098 54.932 9.82962 53.392 10.1096 50.7316C10.3896 48.0713 13.75 43.0307 13.89 40.7905C14.03 38.5503 12.0698 37.43 9.4095 40.5105C6.74918 43.5909 6.60919 52.552 4.50899 49.1916C2.40879 45.8311 6.1892 40.3705 5.90921 37.9902C5.62908 35.61 3.93562 37.8277 3.10876 39.8988Z" fill="url(#paint5_linear)"/>
<path d="M42.1734 97.7774C43.4853 101.79 51.6946 108.279 60.7957 109.119C69.8967 109.959 78.9193 109.119 83.9991 108.279C89.0791 107.439 95.2397 110.939 95.6598 108.839C96.0798 106.739 91.3193 103.08 86.5587 103.649C81.7982 104.218 69.0566 106.412 60.9357 105.805C52.8147 105.198 45.6739 99.7378 44.4136 96.7973C43.1537 93.857 41.6419 96.1513 42.1734 97.7774Z" fill="url(#paint6_linear)"/>
<path d="M102.801 109.521C107.784 108.743 118.623 105.852 120.863 105.805C123.103 105.758 125.203 107.672 129.404 105.805C133.604 103.938 134.725 107.962 140.885 109.521C147.046 111.079 148.633 109.259 151.667 111.079C154.7 112.899 152.367 113.879 150.126 113.179C147.886 112.479 143.266 111.079 140.605 112.479C137.945 113.879 133.372 116.96 127.957 117.94C122.543 118.92 120.446 119.34 121.705 117.94C122.963 116.539 126.603 115.279 129.964 113.039C133.324 110.799 135.005 108.942 131.924 109.52C128.844 110.099 123.523 113.039 120.443 115.699C117.362 118.36 111.902 121.86 112.602 119.9C113.302 117.94 117.922 113.9 120.303 111.719C122.683 109.539 123.386 108.279 121.705 108.699C120.023 109.119 114.562 110.939 112.042 115.139C109.521 119.34 107.981 122.303 106.721 120.471C105.461 118.64 112.042 113.48 112.182 111.719C112.322 109.959 107.701 112.899 105.321 116.119C102.941 119.34 96.2199 123.54 100.14 118.78C104.061 114.019 106.161 111.52 102.801 111.719C99.4402 111.919 94.9597 120.32 92.1594 118.78C89.359 117.24 94.8464 110.762 102.801 109.521Z" fill="url(#paint7_linear)"/>
<path d="M150.184 132.458C147.852 135.092 144.69 137.653 140.511 139.97C125.018 148.556 113.815 143.143 114.375 146.502C114.936 149.865 121.097 165.731 117.735 168.718C115.995 170.266 113.654 171.011 111.671 170.619C111.902 170.358 112.182 170.1 112.509 169.839C118.856 164.798 114.748 163.304 112.136 153.037C109.522 142.77 97.9459 137.541 98.8815 134.181C99.8147 130.821 102.427 134.554 113.442 137.916C124.457 141.276 134.629 139.381 146.673 134.181C147.813 133.689 149.078 133.048 150.184 132.458Z" fill="url(#paint8_linear)"/>
<path d="M108.296 167.853C108.301 167.861 108.303 167.866 108.308 167.873C108.308 167.873 108.308 167.873 108.306 167.876C108.301 167.868 108.298 167.861 108.296 167.853Z" fill="url(#paint9_linear)"/>
<path d="M140.699 127.461C140.138 131.194 129.123 132.315 113.442 128.395C97.7607 124.474 97.2004 126.901 95.6849 130.261C94.1719 133.621 98.8815 141.649 102.987 149.865C105.443 154.774 105.896 158.617 106.444 161.889C104.551 157.54 101.274 152.845 98.5063 148.556C94.7735 142.77 91.2261 131.194 91.4136 128.767C91.5988 126.34 86.7453 126.34 84.3185 123.541C83.7119 122.839 83.1977 121.916 82.7713 120.9C90.746 129.462 99.3345 120.902 107.655 122.608C115.976 124.311 131.552 130.838 135.658 127.461C139.766 124.082 131.177 121.86 133.231 121.024C135.285 120.188 141.259 123.726 140.699 127.461Z" fill="url(#paint10_linear)"/>
<defs>
<linearGradient id="paint0_linear" x1="44.3582" y1="-1.49792" x2="128.789" y2="154.452" gradientUnits="userSpaceOnUse">
<stop stop-color="#EFEAF8"/>
<stop offset="1" stop-color="#EFEAF8" stop-opacity="0"/>
</linearGradient>
<linearGradient id="paint1_linear" x1="44.3582" y1="-1.49792" x2="128.789" y2="154.452" gradientUnits="userSpaceOnUse">
<stop stop-color="#EFEAF8"/>
<stop offset="1" stop-color="#EFEAF8" stop-opacity="0"/>
</linearGradient>
<linearGradient id="paint2_linear" x1="44.3582" y1="-1.49792" x2="128.789" y2="154.452" gradientUnits="userSpaceOnUse">
<stop stop-color="#EFEAF8"/>
<stop offset="1" stop-color="#EFEAF8" stop-opacity="0"/>
</linearGradient>
<linearGradient id="paint3_linear" x1="44.3582" y1="-1.49792" x2="128.789" y2="154.452" gradientUnits="userSpaceOnUse">
<stop stop-color="#EFEAF8"/>
<stop offset="1" stop-color="#EFEAF8" stop-opacity="0"/>
</linearGradient>
<linearGradient id="paint4_linear" x1="44.3582" y1="-1.49792" x2="128.789" y2="154.452" gradientUnits="userSpaceOnUse">
<stop stop-color="#EFEAF8"/>
<stop offset="1" stop-color="#EFEAF8" stop-opacity="0"/>
</linearGradient>
<linearGradient id="paint5_linear" x1="44.3582" y1="-1.49792" x2="128.789" y2="154.452" gradientUnits="userSpaceOnUse">
<stop stop-color="#EFEAF8"/>
<stop offset="1" stop-color="#EFEAF8" stop-opacity="0"/>
</linearGradient>
<linearGradient id="paint6_linear" x1="44.3582" y1="-1.49792" x2="128.789" y2="154.452" gradientUnits="userSpaceOnUse">
<stop stop-color="#EFEAF8"/>
<stop offset="1" stop-color="#EFEAF8" stop-opacity="0"/>
</linearGradient>
<linearGradient id="paint7_linear" x1="44.3582" y1="-1.49792" x2="128.789" y2="154.452" gradientUnits="userSpaceOnUse">
<stop stop-color="#EFEAF8"/>
<stop offset="1" stop-color="#EFEAF8" stop-opacity="0"/>
</linearGradient>
<linearGradient id="paint8_linear" x1="44.3582" y1="-1.49792" x2="128.789" y2="154.452" gradientUnits="userSpaceOnUse">
<stop stop-color="#EFEAF8"/>
<stop offset="1" stop-color="#EFEAF8" stop-opacity="0"/>
</linearGradient>
<linearGradient id="paint9_linear" x1="44.3582" y1="-1.49792" x2="128.789" y2="154.452" gradientUnits="userSpaceOnUse">
<stop stop-color="#EFEAF8"/>
<stop offset="1" stop-color="#EFEAF8" stop-opacity="0"/>
</linearGradient>
<linearGradient id="paint10_linear" x1="44.3582" y1="-1.49792" x2="128.789" y2="154.452" gradientUnits="userSpaceOnUse">
<stop stop-color="#EFEAF8"/>
<stop offset="1" stop-color="#EFEAF8" stop-opacity="0"/>
</linearGradient>
</defs>
</svg>
