<svg width="188" height="198" viewBox="0 0 188 198" fill="none" xmlns="http://www.w3.org/2000/svg">
<path fill-rule="evenodd" clip-rule="evenodd" d="M141.321 122.541C153.652 121.242 165.648 114.761 176.011 103.418C177.641 101.471 177.951 99.52 177.641 97.2541C191.578 80.4001 200 57.3824 200 39.5476C200 11.9943 187.043 9.07997 164.999 4.53817V4.21667C163.37 1.61928 160.777 0 157.541 0C153.007 0 149.429 3.56733 149.429 7.78309C149.429 11.9952 153.006 15.558 157.541 15.558C159.485 15.558 161.115 14.9096 162.41 13.6136L162.721 13.9369C184.12 18.4778 189.638 19.4559 189.638 39.5476C189.638 55.1156 181.865 76.178 169.537 91.4236C167.593 91.4236 165.649 92.073 164.015 93.6913C157.872 100.499 147.824 108.602 136.141 108.602C124.146 108.602 114.432 100.499 108.266 94.0156C106.636 92.3945 104.69 91.4236 102.748 91.4236C90.4392 76.1789 82.3309 55.1156 82.3309 39.5485C82.3309 19.4568 88.1605 18.4787 109.558 13.9378V13.6145C110.857 14.9096 112.798 15.5589 114.742 15.5589C119.276 15.5589 122.85 11.9961 122.85 7.784C122.85 3.56823 119.276 0.000908179 114.742 0.000908179C111.187 0.000908179 108.598 1.62019 107.282 4.21758H106.969C85.258 9.08088 71.9668 11.6728 71.9668 39.5494C71.9668 57.3842 80.3865 80.402 94.6377 97.5784C94.3225 99.5209 94.6377 101.795 96.2669 103.419C106.634 114.436 118.315 120.92 130.311 122.541L129.974 157.546C129.974 181.536 108.912 200.99 83.2909 200.99C57.692 200.99 36.942 181.536 36.942 157.546V126.758C51.8624 124.487 63.2092 112.818 63.2092 98.2286C63.2092 82.0213 48.9372 69.0552 31.4266 69.0552C14.252 69.0543 0 82.0203 0 98.2277C0 112.817 11.6583 124.486 26.2409 126.757V157.545C26.2409 186.727 51.8634 210.392 83.2909 210.392C115.076 210.392 140.671 186.727 140.671 157.545V122.541H141.321ZM31.1133 83.6397C39.5321 83.6397 46.3453 90.1232 46.3453 98.2278C46.3453 106.333 39.5321 113.14 31.1133 113.14C22.3567 113.14 15.8813 106.333 15.8813 98.2278C15.8813 90.1223 22.3567 83.6397 31.1133 83.6397Z" fill="url(#paint0_linear)"/>
<defs>
<linearGradient id="paint0_linear" x1="78.5575" y1="22.7045" x2="154.844" y2="200.253" gradientUnits="userSpaceOnUse">
<stop stop-color="#E8EFFC"/>
<stop offset="1" stop-color="#E8EFFC" stop-opacity="0"/>
</linearGradient>
</defs>
</svg>
